<svg width="256" height="256" viewBox="0 0 256 256" fill="none" xmlns="http://www.w3.org/2000/svg">
<g clip-path="url(#clip0_33_3)">
<rect x="41" y="45" width="178" height="162" fill="#FCFCFB"/>
<path d="M177.148 136.845C176.864 136.928 176.584 137.015 176.298 137.093C174.556 137.587 172.771 137.891 171 137.891C163.19 137.891 158.779 132.614 161.148 126.106C162.881 121.345 167.429 117.329 172.982 115.469C181.586 112.33 187.598 105.174 187.598 96.8463C187.598 85.6253 176.682 76.5288 163.217 76.5288C149.751 76.5288 138.835 85.6253 138.835 96.8463V159.154C138.835 174.139 130.154 187.278 117.164 194.71C110.083 198.761 101.742 201.143 92.7837 201.143C67.389 201.143 46.7305 182.307 46.7305 159.154C46.7305 151.784 48.8376 144.863 52.5095 138.836C58.1922 129.509 67.6612 122.367 79.0027 119.11C80.9426 118.508 82.9258 118.176 84.8811 118.176C92.7263 118.176 97.1575 123.476 94.7782 130.015C93.1657 134.445 88.8233 138.26 83.7606 140.289C83.1559 140.492 82.5675 140.718 81.9867 140.956C73.9448 144.276 68.4025 151.167 68.4025 159.154C68.4025 170.374 79.3178 179.47 92.7837 179.47C106.248 179.47 117.164 170.374 117.164 159.154V96.8463C117.164 81.8607 125.845 68.7217 138.835 61.2891C145.918 57.238 154.258 54.8566 163.217 54.8566C188.611 54.8566 209.27 73.6927 209.27 96.8463C209.27 104.215 207.162 111.137 203.491 117.164C197.832 126.45 188.421 133.568 177.148 136.845ZM0 128C0 198.692 57.3076 256 128 256C198.692 256 256 198.692 256 128C256 57.3076 198.692 0 128 0C57.3076 0 0 57.3076 0 128Z" fill="url(#paint0_linear_33_3)"/>
</g>
<defs>
<linearGradient id="paint0_linear_33_3" x1="238" y1="20" x2="41.5" y2="249.5" gradientUnits="userSpaceOnUse">
<stop stop-color="#262D40"/>
<stop offset="1" stop-color="#131620"/>
</linearGradient>
<clipPath id="clip0_33_3">
<rect width="256" height="256" fill="white"/>
</clipPath>
</defs>
</svg>
